<svg xmlns="http://www.w3.org/2000/svg" viewBox="0 0 350 59.07"><defs><style>.cls-1{fill:#fff;}</style></defs><title>Asset 3</title><g id="Layer_2" data-name="Layer 2"><g id="Logo"><rect id="BACK" class="cls-1" width="164.74" height="59.07"/><g id="BURGER"><path id="span3" d="M50.91,16.51H8.16V8.16H50.91Z"/><path id="span2" d="M50.91,50.91H8.16v-8.3H50.91Z"/><path id="span1" d="M50.91,33.69H8.16v-8.3H50.91Z"/></g><g id="UNI"><path id="U" d="M76.75,43.42a9.36,9.36,0,0,0,4.88-1.18,9.57,9.57,0,0,0,3.19-3.07,12.82,12.82,0,0,0,1.72-4.35,25.54,25.54,0,0,0,.5-5.06V8.36h8.1v21.4a30.56,30.56,0,0,1-1,8.1,18.6,18.6,0,0,1-3.25,6.63A15.6,15.6,0,0,1,85.15,49a19.24,19.24,0,0,1-8.34,1.66,19,19,0,0,1-8.55-1.75,15.88,15.88,0,0,1-5.7-4.61,18.38,18.38,0,0,1-3.17-6.65,31.42,31.42,0,0,1-1-7.87V8.36h8.16v21.4a25.12,25.12,0,0,0,.5,5.12,12.57,12.57,0,0,0,1.72,4.34,8.86,8.86,0,0,0,8,4.2Z"/><path id="N" d="M111.46,23.44v26.9H103.3v-42h6.33l21.88,27.55V8.42h8.16V50.34H133Z"/><path id="I" d="M148.42,50.34V8.42h8.16V50.34Z"/></g><g id="VERSE"><path id="V" class="cls-1" d="M173.31,8.46l11.36,31.75L195.9,8.46h8.58l-16.38,42h-6.86l-16.5-42Z"/><path id="E" class="cls-1" d="M238.06,43.29v7.15H208.91v-42h28.62v7.15H217.07V25.72h17.68v6.63H217.07V43.29Z"/><path id="R" class="cls-1" d="M244.63,50.44v-42h18.56a11.87,11.87,0,0,1,5.35,1.21,13.8,13.8,0,0,1,4.23,3.19,14.88,14.88,0,0,1,2.78,4.5,13.5,13.5,0,0,1,1,5.05,13.94,13.94,0,0,1-2,7.42A11.7,11.7,0,0,1,269,34.65l9.87,15.79h-9.22l-8.81-14.07h-8V50.44Zm8.16-21.23H263a4.36,4.36,0,0,0,2.09-.53,5.33,5.33,0,0,0,1.69-1.45,7.12,7.12,0,0,0,1.12-2.16,8.24,8.24,0,0,0,.42-2.66,7.51,7.51,0,0,0-.48-2.72,6.81,6.81,0,0,0-1.27-2.16,5.8,5.8,0,0,0-1.83-1.42,4.83,4.83,0,0,0-2.1-.5h-9.87Z"/><path id="S" class="cls-1" d="M309.55,19.45a10.34,10.34,0,0,0-1.5-1.12,19.22,19.22,0,0,0-2.67-1.39,22.21,22.21,0,0,0-3.4-1.15,14.59,14.59,0,0,0-3.72-.47,8.36,8.36,0,0,0-5,1.24,4.12,4.12,0,0,0-1.65,3.49,3.53,3.53,0,0,0,.62,2.15,5.17,5.17,0,0,0,1.8,1.51,15,15,0,0,0,3,1.19c1.2.35,2.59.73,4.17,1.12q3.07.82,5.58,1.77A15,15,0,0,1,311,30.16a9.74,9.74,0,0,1,2.69,3.4,11.29,11.29,0,0,1,.95,4.88,12.22,12.22,0,0,1-1.27,5.76,10.83,10.83,0,0,1-3.4,3.88,14.64,14.64,0,0,1-5,2.15,24.91,24.91,0,0,1-5.91.68,31.52,31.52,0,0,1-9.35-1.42,28.51,28.51,0,0,1-8.27-4l3.6-7A12.08,12.08,0,0,0,287,39.83a29.15,29.15,0,0,0,3.29,1.71A25.38,25.38,0,0,0,294.47,43a19.24,19.24,0,0,0,4.74.59q6.74,0,6.74-4.32a3.64,3.64,0,0,0-.77-2.36A6.68,6.68,0,0,0,303,35.24a22,22,0,0,0-3.43-1.3c-1.34-.39-2.84-.8-4.49-1.24a38.25,38.25,0,0,1-5.24-1.8,14,14,0,0,1-3.69-2.28,8.26,8.26,0,0,1-2.22-3.07,11,11,0,0,1-.74-4.2,13.05,13.05,0,0,1,1.18-5.68,11.5,11.5,0,0,1,3.28-4.14A14.94,14.94,0,0,1,292.52,9a20.29,20.29,0,0,1,6-.86,23.15,23.15,0,0,1,8.16,1.39,30.6,30.6,0,0,1,6.5,3.28Z"/><path id="E-2" data-name="E" class="cls-1" d="M350,43.29v7.15H320.85v-42h28.62v7.15H329V25.72h17.68v6.63H329V43.29Z"/></g></g></g></svg>