<svg id="Шар_1" data-name="Шар 1" xmlns="http://www.w3.org/2000/svg" viewBox="0 0 50 50"><defs><style>.cls-1{fill:#fff;}.cls-2{fill:none;}</style></defs><title>logo</title><path class="cls-1" d="M13.75,39.24c-.68,0-1,.57-1,1.73,0,1.48.37,2.22,1.13,2.22a.88.88,0,0,0,.91-.74,5.2,5.2,0,0,0-.18-2.7A.9.9,0,0,0,13.75,39.24Z"/><path class="cls-1" d="M29.93,8.06a22.78,22.78,0,0,0-4.35.4q-.13,3.34-.14,7.56v9.65q0,4.2.14,7.55a22,22,0,0,0,4.35.41q5.48,0,8-3.18t2.55-9V20.2q0-5.77-2.55-9T29.93,8.06Z"/><path class="cls-1" d="M45,0H5A5,5,0,0,0,0,5V45a5,5,0,0,0,5,5H45a5,5,0,0,0,5-5V5A5,5,0,0,0,45,0ZM5.86,35.18v-1L6,34a14.52,14.52,0,0,0,2-.21,1.3,1.3,0,0,0,.68-.31A1.77,1.77,0,0,0,9,32.69a23.5,23.5,0,0,0,.12-2.81l0-4.3V16.15l0-4c0-1.55-.05-2.54-.09-3a2.25,2.25,0,0,0-.23-.9,1.21,1.21,0,0,0-.6-.37A12.62,12.62,0,0,0,6,7.69l-.13-.14v-1L6,6.39h9.38l.13.14v1l-.13.14q-1.12,0-1.74.12a1.83,1.83,0,0,0-.89.31,1.59,1.59,0,0,0-.37,1.05,22.35,22.35,0,0,0-.09,2.29l0,4.69v13.4c0,1.54.05,2.53.1,3a2.21,2.21,0,0,0,.24.9,1.19,1.19,0,0,0,.6.37,10.85,10.85,0,0,0,2.17.24l.13.12v1l-.13.16H6Zm4,8.16a3,3,0,0,1-1.36.34,2.36,2.36,0,0,1-1.75-.62,2.31,2.31,0,0,1-.6-1.69,2.66,2.66,0,0,1,.83-2,2.62,2.62,0,0,1,1.86-.52A2.91,2.91,0,0,1,10,39l.05.09a3.83,3.83,0,0,1-.07.45l0,.33a4.75,4.75,0,0,0-.05.64l-.05,0H9.55l-.05,0a3.76,3.76,0,0,0-.07-.59.91.91,0,0,0-.86-.38c-.73,0-1.09.44-1.09,1.32a2.39,2.39,0,0,0,.44,1.52A1.46,1.46,0,0,0,9.17,43a1.82,1.82,0,0,0,.86-.2l.1.11Zm5.18,0a3.11,3.11,0,0,1-1.35.29A2.35,2.35,0,0,1,11.94,43a2.56,2.56,0,0,1-.62-1.84,2.18,2.18,0,0,1,1.2-2.2,3.2,3.2,0,0,1,1.36-.27A2.16,2.16,0,0,1,16,39.79a2.9,2.9,0,0,1,.26,1.29A2.35,2.35,0,0,1,15.08,43.39Zm8.33.06-.05,0-.95,0-1.05,0-.05,0c.06-.71.09-1.27.09-1.66v-.94c0-.78-.29-1.18-.89-1.18a.91.91,0,0,0-.74.31.77.77,0,0,0-.22.51v.91a10.86,10.86,0,0,0,.06,1.53c0,.11.23.17.59.18l.06,0v.3l-.06,0c-.28,0-.72,0-1.29,0s-1.08,0-1.4,0l-.05,0v-.29l.05,0a2,2,0,0,0,.61-.07c.07,0,.11-.11.11-.23,0-.42,0-.87,0-1.35v-.69a4.07,4.07,0,0,0-.08-1.11.29.29,0,0,0-.22-.12l-.44,0-.05-.05V39.2l.05-.05a9.63,9.63,0,0,0,1.93-.4l.12.06v.81l.87-.69a2,2,0,0,1,.75-.13,1.51,1.51,0,0,1,1.21.46,1.62,1.62,0,0,1,.33,1.1c0,.06,0,.28,0,.67s0,.68,0,.84c0,.49,0,.8,0,.93s.06.22.12.25a1.45,1.45,0,0,0,.53.07l.05,0Zm4.4-.24a2.62,2.62,0,0,1-1.62.47,4.62,4.62,0,0,1-1.52-.29l-.06-.07c0-.3.05-.53.06-.69l0-.61.05-.05h.3l.06.05a3.75,3.75,0,0,0,.05.64,1.39,1.39,0,0,0,1.13.52A1.2,1.2,0,0,0,27,43a.66.66,0,0,0,.28-.56.56.56,0,0,0-.41-.58,6.78,6.78,0,0,0-.69-.17,3.12,3.12,0,0,1-1.13-.38,1.14,1.14,0,0,1-.44-1,1.34,1.34,0,0,1,.54-1.12,2.37,2.37,0,0,1,1.52-.45A3.17,3.17,0,0,1,28,39l.05.08A6.82,6.82,0,0,0,28,40.2l-.06,0h-.29l0,0a5,5,0,0,0-.07-.56,1.16,1.16,0,0,0-.94-.39,1.11,1.11,0,0,0-.65.19.56.56,0,0,0-.26.48.53.53,0,0,0,.44.53c.13,0,.38.1.75.17A3,3,0,0,1,28,41a1.12,1.12,0,0,1,.42,1A1.5,1.5,0,0,1,27.81,43.21Zm7.64.23-.05.05-1,0h-1l0,0c0-.26,0-.51,0-.75a11.12,11.12,0,0,0-.93.8,2.08,2.08,0,0,1-.71.12,1.62,1.62,0,0,1-1.09-.35,1.29,1.29,0,0,1-.4-1c0-.06,0-.17,0-.35s0-.35,0-.51v-.62a4.41,4.41,0,0,0-.07-1.11.31.31,0,0,0-.22-.12l-.45,0-.05-.05V39.2l.05-.05a9.31,9.31,0,0,0,2-.4l.12.06c-.05.53-.07,1-.07,1.48v.94a6,6,0,0,0,0,.9.69.69,0,0,0,.25.44.79.79,0,0,0,.51.15,1.08,1.08,0,0,0,.7-.24.75.75,0,0,0,.3-.55c0-.16,0-.26,0-.29v-.87a4.41,4.41,0,0,0-.07-1.11.31.31,0,0,0-.22-.12l-.45,0,0-.05V39.2l0-.05a9.53,9.53,0,0,0,2-.4l.11.06a14.39,14.39,0,0,0-.07,1.48V41.8A5.49,5.49,0,0,0,34.76,43a.14.14,0,0,0,.1.08,2.15,2.15,0,0,0,.53.06l.06,0Zm4,0-.05,0c-.32,0-.79,0-1.4,0s-1.07,0-1.39,0l-.06,0v-.29l.06,0a1.94,1.94,0,0,0,.6-.07c.07,0,.11-.11.12-.23,0-.42,0-1.15,0-2.2V39c0-.68,0-1.22,0-1.64,0-.12,0-.2-.12-.23a1.76,1.76,0,0,0-.59-.07L36.54,37v-.22l0-.07a5.29,5.29,0,0,0,1.79-.85l.31.16c0,.08,0,.57,0,.8,0,.77,0,1.62,0,2.55v1.24c0,1,0,1.78,0,2.2,0,.12,0,.2.12.23a1.89,1.89,0,0,0,.6.07l.06,0Zm4-.41c-.2.18-.38.34-.52.49a1.81,1.81,0,0,1-.51.08,1.27,1.27,0,0,1-1-.39,1,1,0,0,1-.19-.39,3.51,3.51,0,0,1,0-.7V39.77h-.61l-.06,0v-.12l0-.08.29-.17a3.84,3.84,0,0,0,.34-.23v-.65c0-.28,0-.56,0-.87l.62-.2a7.34,7.34,0,0,0,.67-.3l.14.1c0,.4-.07.76-.09,1.07l0,.83h.17q.55,0,1,0l.06,0-.07.57,0,0H42.39v1.63a7.63,7.63,0,0,0,0,.93.42.42,0,0,0,.18.32.6.6,0,0,0,.42.13,1.51,1.51,0,0,0,.5-.11l.12.18Zm.7-20.82a19.19,19.19,0,0,1-.87,5.34A12.71,12.71,0,0,1,40.71,32a9.22,9.22,0,0,1-3.84,2.65,16.8,16.8,0,0,1-5.53.77H19.51l-.17-.19v-1l.13-.14,1.29-.12a3.21,3.21,0,0,0,.83-.2.76.76,0,0,0,.35-.27,1.65,1.65,0,0,0,.2-.57,11.82,11.82,0,0,0,.12-1.36q0-.95,0-2.46l0-4.63V17.28l0-4.63q0-1.51,0-2.46a11.6,11.6,0,0,0-.12-1.36,1.65,1.65,0,0,0-.2-.57A.85.85,0,0,0,21.59,8a3.3,3.3,0,0,0-.83-.19l-1.29-.12-.13-.15v-1l.17-.18H31.34a16.8,16.8,0,0,1,5.53.77,9.22,9.22,0,0,1,3.84,2.65,12.71,12.71,0,0,1,2.54,4.39,18.72,18.72,0,0,1,.87,5.34C44.14,19.93,44.15,21.76,44.12,22.22Z"/><path class="cls-2" d="M9.17,43a1.46,1.46,0,0,1-1.25-.58,2.39,2.39,0,0,1-.44-1.52c0-.88.36-1.32,1.09-1.32a.91.91,0,0,1,.86.38,3.76,3.76,0,0,1,.07.59l.05,0h.31l.05,0a4.75,4.75,0,0,1,.05-.64l0-.33a3.83,3.83,0,0,0,.07-.45L10,39a2.91,2.91,0,0,0-1.15-.19A2.62,2.62,0,0,0,7,39.32a2.66,2.66,0,0,0-.83,2,2.31,2.31,0,0,0,.6,1.69,2.36,2.36,0,0,0,1.75.62,3,3,0,0,0,1.36-.34l.23-.48-.1-.11A1.82,1.82,0,0,1,9.17,43Z"/><path class="cls-2" d="M13.88,38.73a3.2,3.2,0,0,0-1.36.27,2.18,2.18,0,0,0-1.2,2.2A2.56,2.56,0,0,0,11.94,43a2.35,2.35,0,0,0,1.79.64,3.11,3.11,0,0,0,1.35-.29,2.35,2.35,0,0,0,1.22-2.31A2.9,2.9,0,0,0,16,39.79,2.16,2.16,0,0,0,13.88,38.73Zm.9,3.72a.88.88,0,0,1-.91.74c-.76,0-1.13-.74-1.13-2.22,0-1.16.33-1.73,1-1.73a.9.9,0,0,1,.85.51,5.2,5.2,0,0,1,.18,2.7Z"/><path class="cls-2" d="M22.83,43.05c-.06,0-.1-.12-.12-.25s0-.44,0-.93c0-.16,0-.44,0-.84s0-.61,0-.67a1.62,1.62,0,0,0-.33-1.1,1.51,1.51,0,0,0-1.21-.46,2,2,0,0,0-.75.13l-.87.69v-.81l-.12-.06a9.63,9.63,0,0,1-1.93.4l-.05.05v.27l.05.05.44,0a.29.29,0,0,1,.22.12,4.07,4.07,0,0,1,.08,1.11v.69c0,.48,0,.93,0,1.35,0,.12,0,.2-.11.23a2,2,0,0,1-.61.07l-.05,0v.29l.05,0c.32,0,.79,0,1.4,0s1,0,1.29,0l.06,0v-.3l-.06,0c-.36,0-.56-.07-.59-.18a10.86,10.86,0,0,1-.06-1.53v-.91a.77.77,0,0,1,.22-.51.91.91,0,0,1,.74-.31c.6,0,.89.4.89,1.18v.94c0,.39,0,1-.09,1.66l.05,0,1.05,0,.95,0,.05,0v-.29l-.05,0A1.45,1.45,0,0,1,22.83,43.05Z"/><path class="cls-2" d="M26.87,40.62c-.37-.07-.62-.13-.75-.17a.53.53,0,0,1-.44-.53.56.56,0,0,1,.26-.48,1.11,1.11,0,0,1,.65-.19,1.16,1.16,0,0,1,.94.39,5,5,0,0,1,.07.56l0,0h.29l.06,0a6.82,6.82,0,0,1,.09-1.11L28,39a3.17,3.17,0,0,0-1.36-.26,2.37,2.37,0,0,0-1.52.45,1.34,1.34,0,0,0-.54,1.12,1.14,1.14,0,0,0,.44,1,3.12,3.12,0,0,0,1.13.38,6.78,6.78,0,0,1,.69.17.56.56,0,0,1,.41.58A.66.66,0,0,1,27,43a1.2,1.2,0,0,1-.72.2,1.39,1.39,0,0,1-1.13-.52,3.75,3.75,0,0,1-.05-.64L25.05,42h-.3L24.7,42l0,.61c0,.16,0,.39-.06.69l.06.07a4.62,4.62,0,0,0,1.52.29,2.62,2.62,0,0,0,1.62-.47A1.5,1.5,0,0,0,28.43,42,1.12,1.12,0,0,0,28,41,3,3,0,0,0,26.87,40.62Z"/><path class="cls-2" d="M34.86,43a.14.14,0,0,1-.1-.08,5.49,5.49,0,0,1-.06-1.16V40.29a14.39,14.39,0,0,1,.07-1.48l-.11-.06a9.53,9.53,0,0,1-2,.4l0,.05v.27l0,.05.45,0a.31.31,0,0,1,.22.12,4.41,4.41,0,0,1,.07,1.11v.87s0,.13,0,.29a.75.75,0,0,1-.3.55,1.08,1.08,0,0,1-.7.24.79.79,0,0,1-.51-.15.69.69,0,0,1-.25-.44,6,6,0,0,1,0-.9v-.94c0-.45,0-.95.07-1.48l-.12-.06a9.31,9.31,0,0,1-2,.4l-.05.05v.27l.05.05.45,0a.31.31,0,0,1,.22.12,4.41,4.41,0,0,1,.07,1.11v.62c0,.16,0,.33,0,.51s0,.29,0,.35a1.29,1.29,0,0,0,.4,1,1.62,1.62,0,0,0,1.09.35,2.08,2.08,0,0,0,.71-.12,11.12,11.12,0,0,1,.93-.8c0,.24,0,.49,0,.75l0,0h1l1,0,.05-.05v-.29l-.06,0A2.15,2.15,0,0,1,34.86,43Z"/><path class="cls-2" d="M38.76,43c-.07,0-.11-.11-.12-.23,0-.42,0-1.15,0-2.2V39.37c0-.93,0-1.78,0-2.55,0-.23,0-.72,0-.8l-.31-.16a5.29,5.29,0,0,1-1.79.85l0,.07V37l.05.06a1.76,1.76,0,0,1,.59.07c.07,0,.11.11.12.23,0,.42,0,1,0,1.64v1.61c0,1,0,1.78,0,2.2,0,.12,0,.2-.12.23a1.94,1.94,0,0,1-.6.07l-.06,0v.29l.06,0c.32,0,.78,0,1.39,0s1.08,0,1.4,0l.05,0v-.29l-.06,0A1.89,1.89,0,0,1,38.76,43Z"/><path class="cls-2" d="M43,42.77a.6.6,0,0,1-.42-.13.42.42,0,0,1-.18-.32,7.63,7.63,0,0,1,0-.93V39.76h1.07l0,0,.07-.57-.06,0q-.41,0-1,0h-.17l0-.83c0-.31.05-.67.09-1.07l-.14-.1a7.34,7.34,0,0,1-.67.3l-.62.2c0,.31,0,.59,0,.87v.65a3.84,3.84,0,0,1-.34.23l-.29.17,0,.08v.12l.06,0h.61v2.36a3.51,3.51,0,0,0,0,.7,1,1,0,0,0,.19.39,1.27,1.27,0,0,0,1,.39,1.81,1.81,0,0,0,.51-.08c.14-.15.32-.31.52-.49l.22-.2-.12-.18A1.51,1.51,0,0,1,43,42.77Z"/><path class="cls-2" d="M15.5,35.18v-1L15.37,34a10.85,10.85,0,0,1-2.17-.24,1.19,1.19,0,0,1-.6-.37,2.21,2.21,0,0,1-.24-.9c0-.45-.09-1.44-.1-3V16.15l0-4.69a22.35,22.35,0,0,1,.09-2.29,1.59,1.59,0,0,1,.37-1.05,1.83,1.83,0,0,1,.89-.31q.61-.08,1.74-.12l.13-.14v-1l-.13-.14H6l-.13.14v1L6,7.69a12.62,12.62,0,0,1,2.18.22,1.21,1.21,0,0,1,.6.37,2.25,2.25,0,0,1,.23.9c0,.45.07,1.44.09,3l0,4v9.43l0,4.3A23.5,23.5,0,0,1,9,32.69a1.77,1.77,0,0,1-.28.83,1.3,1.3,0,0,1-.68.31A14.52,14.52,0,0,1,6,34l-.13.12v1l.13.16h9.38Z"/><path class="cls-2" d="M43.25,14.13a12.71,12.71,0,0,0-2.54-4.39,9.22,9.22,0,0,0-3.84-2.65,16.8,16.8,0,0,0-5.53-.77H19.51l-.17.18v1l.13.15,1.29.12a3.3,3.3,0,0,1,.83.19.85.85,0,0,1,.35.28,1.65,1.65,0,0,1,.2.57,11.6,11.6,0,0,1,.12,1.36q0,.95,0,2.46l0,4.63v7.13l0,4.63q0,1.52,0,2.46a11.82,11.82,0,0,1-.12,1.36,1.65,1.65,0,0,1-.2.57.76.76,0,0,1-.35.27,3.21,3.21,0,0,1-.83.2L19.47,34l-.13.14v1l.17.19H31.34a16.8,16.8,0,0,0,5.53-.77A9.22,9.22,0,0,0,40.71,32a12.71,12.71,0,0,0,2.54-4.39,19.19,19.19,0,0,0,.87-5.34c0-.46,0-2.29,0-2.75A18.72,18.72,0,0,0,43.25,14.13ZM40.5,21.49q0,5.76-2.55,9t-8,3.18a22,22,0,0,1-4.35-.41q-.13-3.34-.14-7.55V16q0-4.21.14-7.56a22.78,22.78,0,0,1,4.35-.4q5.48,0,8,3.18t2.55,9Z"/></svg>