<?xml version="1.0" encoding="utf-8"?>
<!-- Generator: Adobe Illustrator 23.0.1, SVG Export Plug-In . SVG Version: 6.00 Build 0)  -->
<svg version="1.1" id="Layer_1" xmlns="http://www.w3.org/2000/svg" xmlns:xlink="http://www.w3.org/1999/xlink" x="0px" y="0px"
	 viewBox="0 0 299.8 59.1" style="enable-background:new 0 0 299.8 59.1;" xml:space="preserve">
<style type="text/css">
	.st0{fill:#FFFFFF;}
</style>
<title>Asset 3</title>
<rect id="BACK" class="st0" width="114.5" height="59.1"/>
<g id="UNI">
	<path id="U" d="M26.5,43.4c1.7,0.1,3.4-0.3,4.9-1.2c1.3-0.8,2.4-1.8,3.2-3.1c0.8-1.3,1.4-2.8,1.7-4.3c0.3-1.7,0.5-3.4,0.5-5.1V8.4
		h8.1v21.4c0,2.7-0.3,5.5-1,8.1c-0.6,2.4-1.7,4.7-3.3,6.6c-1.5,1.9-3.5,3.5-5.7,4.5c-2.6,1.2-5.5,1.7-8.3,1.7
		c-2.9,0.1-5.9-0.5-8.6-1.8c-2.2-1.1-4.2-2.6-5.7-4.6c-1.5-2-2.6-4.2-3.2-6.7c-0.7-2.6-1-5.2-1-7.9V8.4h8.2v21.4
		c0,1.7,0.2,3.4,0.5,5.1c0.3,1.5,0.9,3,1.7,4.3C20.2,42,23.3,43.6,26.5,43.4L26.5,43.4z"/>
	<path id="N" d="M61.2,23.4v26.9h-8.2v-42h6.3l21.9,27.5V8.4h8.2v41.9h-6.7L61.2,23.4z"/>
	<path id="I" d="M98.2,50.3V8.4h8.2v41.9H98.2z"/>
</g>
<g id="VERSE">
	<path id="V" class="st0" d="M123.1,8.5l11.4,31.8l11.2-31.8h8.6l-16.4,42H131l-16.5-42L123.1,8.5z"/>
	<path id="E" class="st0" d="M187.8,43.3v7.2h-29.1v-42h28.6v7.1h-20.5v10.1h17.7v6.6h-17.7v10.9H187.8z"/>
	<path id="R" class="st0" d="M194.4,50.4v-42H213c1.9,0,3.7,0.4,5.4,1.2c1.6,0.8,3,1.9,4.2,3.2c1.2,1.3,2.1,2.8,2.8,4.5
		c0.7,1.6,1,3.3,1,5.1c0,2.6-0.7,5.2-2,7.4c-1.3,2.2-3.2,3.9-5.6,4.8l9.9,15.8h-9.2l-8.8-14.1h-8v14.1H194.4z M202.6,29.2h10.2
		c0.7,0,1.4-0.2,2.1-0.5c0.7-0.4,1.2-0.9,1.7-1.5c0.5-0.7,0.9-1.4,1.1-2.2c0.3-0.9,0.4-1.8,0.4-2.7c0-0.9-0.2-1.9-0.5-2.7
		c-0.3-0.8-0.7-1.5-1.3-2.2c-0.5-0.6-1.1-1.1-1.8-1.4c-0.7-0.3-1.4-0.5-2.1-0.5h-9.9L202.6,29.2z"/>
	<path id="S" class="st0" d="M259.3,19.5c-0.5-0.4-1-0.8-1.5-1.1c-0.9-0.5-1.7-1-2.7-1.4c-1.1-0.5-2.2-0.9-3.4-1.1
		c-1.2-0.3-2.5-0.5-3.7-0.5c-1.8-0.1-3.5,0.3-5,1.2c-1.1,0.8-1.7,2.1-1.6,3.5c0,0.8,0.2,1.5,0.6,2.1c0.5,0.6,1.1,1.2,1.8,1.5
		c1,0.5,2,0.9,3,1.2c1.2,0.4,2.6,0.7,4.2,1.1c2,0.5,3.9,1.1,5.6,1.8c1.5,0.6,3,1.4,4.2,2.4c1.1,0.9,2.1,2.1,2.7,3.4
		c0.7,1.5,1,3.2,1,4.9c0.1,2-0.4,4-1.3,5.8c-0.8,1.5-2,2.9-3.4,3.9c-1.5,1-3.2,1.8-5,2.2c-1.9,0.5-3.9,0.7-5.9,0.7
		c-3.2,0-6.3-0.5-9.4-1.4c-3-0.9-5.7-2.2-8.3-4l3.6-7c0.6,0.5,1.3,1,2,1.3c1.1,0.6,2.2,1.2,3.3,1.7c1.3,0.6,2.7,1.1,4.2,1.5
		c1.5,0.4,3.1,0.6,4.7,0.6c4.5,0,6.7-1.4,6.7-4.3c0-0.9-0.2-1.7-0.8-2.4c-0.6-0.7-1.3-1.3-2.2-1.7c-1.1-0.5-2.3-1-3.4-1.3
		c-1.3-0.4-2.8-0.8-4.5-1.2c-1.8-0.5-3.5-1.1-5.2-1.8c-1.3-0.6-2.6-1.3-3.7-2.3c-1-0.8-1.7-1.9-2.2-3.1c-0.5-1.3-0.8-2.8-0.7-4.2
		c0-2,0.4-3.9,1.2-5.7c0.8-1.6,1.9-3,3.3-4.1c1.5-1.1,3.1-2,4.9-2.5c1.9-0.6,4-0.9,6-0.9c2.8,0,5.5,0.4,8.2,1.4
		c2.3,0.8,4.5,1.9,6.5,3.3L259.3,19.5z"/>
	<path id="E-2" class="st0" d="M299.8,43.3v7.2h-29.1v-42h28.6v7.1h-20.5v10.1h17.7v6.6h-17.7v10.9H299.8z"/>
</g>
</svg>
